<svg xmlns="http://www.w3.org/2000/svg" width="79" height="79" viewBox="0 0 79 79"><defs><style>.a,.d{fill:none;}.a{stroke:#373c3d;stroke-width:2px;}.b{fill:#2bdf9d;opacity:0.402;}.c{stroke:none;}</style></defs><g transform="translate(-11.991 -11.965)"><g class="a" transform="translate(11.991 11.965)"><circle class="c" cx="39.5" cy="39.5" r="39.5"/><circle class="d" cx="39.5" cy="39.5" r="38.5"/></g><g transform="translate(-1)"><rect class="b" width="28" height="29" rx="4" transform="translate(42.991 39.965)"/><g transform="translate(36.393 40.321)"><path d="M20.755,8.511l1.177-2.579,2.579-1.177L21.932,3.579,20.755,1,19.579,3.579,17,4.755l2.579,1.177Z" transform="translate(3.778)"/><path d="M9.255,8.511l1.177-2.579,2.579-1.177L10.432,3.579,9.255,1,8.079,3.579,5.5,4.755,8.079,5.932Z" transform="translate(0.882)"/><path d="M20.755,12.5l-1.177,2.579L17,16.255l2.579,1.177,1.177,2.579,1.177-2.579,2.579-1.177-2.579-1.177Z" transform="translate(3.778 2.896)"/><path d="M21.667,9.906,18.124,6.363a1.27,1.27,0,0,0-1.778,0L2.364,20.346a1.247,1.247,0,0,0,0,1.765l3.543,3.543a1.242,1.242,0,0,0,.889.376,1.282,1.282,0,0,0,.889-.363L21.667,11.683A1.262,1.262,0,0,0,21.667,9.906Zm-4.431-.876L19,10.794l-1.465,1.465-1.765-1.765ZM6.8,23.012,5.03,21.247l8.976-8.988,1.765,1.765Z" transform="translate(0 1.259)"/></g></g></g></svg>