<svg xmlns="http://www.w3.org/2000/svg" width="79" height="79" viewBox="0 0 79 79"><defs><style>.a,.d{fill:none;}.a{stroke:#373c3d;stroke-width:2px;}.b{fill:#2bdf9d;opacity:0.402;}.c{stroke:none;}</style></defs><g transform="translate(-11.991 -11.965)"><g class="a" transform="translate(11.991 11.965)"><circle class="c" cx="39.5" cy="39.5" r="39.5"/><circle class="d" cx="39.5" cy="39.5" r="38.5"/></g><g transform="translate(-1)"><rect class="b" width="28" height="29" rx="4" transform="translate(42.991 39.965)"/><g transform="translate(36.991 36.965)"><path d="M1,3.645V6.289H30.09V3.645A2.646,2.646,0,0,0,27.446,1H3.645A2.646,2.646,0,0,0,1,3.645ZM4.976,4.977A1.321,1.321,0,1,1,6.3,3.656,1.321,1.321,0,0,1,4.976,4.977Zm3.964,0a1.321,1.321,0,1,1,1.321-1.321A1.321,1.321,0,0,1,8.939,4.976Z"/><path d="M1,6V24.512a2.645,2.645,0,0,0,2.645,2.645h23.8a2.645,2.645,0,0,0,2.645-2.645V6ZM27.446,24.512H3.645V8.645h23.8Z" transform="translate(0 1.611)"/><path d="M10.289,20.578l.926-.926.926-.926-1.719-1.719L8.7,15.289l1.719-1.719,1.719-1.719-.926-.926L10.289,10,7.645,12.645,5,15.289l2.645,2.645Z" transform="translate(1.289 2.901)"/><path d="M13.6,18.727l.926.926.926.926L18.1,17.934l2.645-2.645L18.1,12.645,15.451,10l-.926.926-.926.926,1.719,1.719,1.719,1.719-1.719,1.719Z" transform="translate(4.061 2.901)"/><path d="M10.289,20.578l.926-.926.926-.926-1.719-1.719L8.7,15.289l1.719-1.719,1.719-1.719-.926-.926L10.289,10,7.645,12.645,5,15.289l2.645,2.645Z" transform="translate(1.289 2.901)"/><path d="M13.6,18.727l.926.926.926.926L18.1,17.934l2.645-2.645L18.1,12.645,15.451,10l-.926.926-.926.926,1.719,1.719,1.719,1.719-1.719,1.719Z" transform="translate(4.061 2.901)"/></g></g></g></svg>